<svg viewBox="0 0 20 20"
              width="20"
              height="20" fill="none" xmlns="http://www.w3.org/2000/svg" id="Cross-1--Streamline-Radix">
  <path  fill-rule="evenodd" clip-rule="evenodd" d="M12.8536 2.85355c0.1952 -0.19526 0.1952 -0.51184 0 -0.7071 -0.1953 -0.19527 -0.5119 -0.19527 -0.7072 0L7.5 6.79289 2.85355 2.14645c-0.19526 -0.19527 -0.51184 -0.19527 -0.7071 0 -0.19527 0.19526 -0.19527 0.51184 0 0.7071L6.79289 7.5l-4.64644 4.6464c-0.19527 0.1953 -0.19527 0.5119 0 0.7072 0.19526 0.1952 0.51184 0.1952 0.7071 0L7.5 8.20711l4.6464 4.64649c0.1953 0.1952 0.5119 0.1952 0.7072 0 0.1952 -0.1953 0.1952 -0.5119 0 -0.7072L8.20711 7.5l4.64649 -4.64645Z" fill="#00000067" stroke-width="1"></path>
</svg>